<?xml version="1.0" encoding="UTF-8" standalone="no"?>
<!DOCTYPE svg PUBLIC "-//W3C//DTD SVG 1.1//EN"
 "http://www.w3.org/Graphics/SVG/1.1/DTD/svg11.dtd">
<!-- Generated by graphviz version 2.40.1 (20161225.0304)
 -->
<!-- Title: finite_state_machine Pages: 1 -->
<svg width="156pt" height="360pt"
 viewBox="0.00 0.00 156.12 360.00" xmlns="http://www.w3.org/2000/svg" xmlns:xlink="http://www.w3.org/1999/xlink">
<g id="graph0" class="graph" transform="scale(.9184 .9184) rotate(0) translate(4 388)">
<title>finite_state_machine</title>
<polygon fill="#ffffff" stroke="transparent" points="-4,4 -4,-388 166,-388 166,4 -4,4"/>
<!-- 0 -->
<g id="node1" class="node">
<title>0</title>
<ellipse fill="none" stroke="#000000" cx="72" cy="-366" rx="18" ry="18"/>
<text text-anchor="middle" x="72" y="-362.3" font-family="Times,serif" font-size="14.00" fill="#000000">0</text>
</g>
<!-- 2 -->
<g id="node2" class="node">
<title>2</title>
<ellipse fill="none" stroke="#000000" cx="18" cy="-192" rx="18" ry="18"/>
<text text-anchor="middle" x="18" y="-188.3" font-family="Times,serif" font-size="14.00" fill="#000000">2</text>
</g>
<!-- 0&#45;&gt;2 -->
<g id="edge1" class="edge">
<title>0&#45;&gt;2</title>
<path fill="none" stroke="#000000" d="M58.3735,-353.2558C45.7294,-340.4354 27.7343,-319.4025 20,-297 11.3978,-272.0837 11.8738,-241.8218 13.9178,-220.1989"/>
<polygon fill="#000000" stroke="#000000" points="17.42,-220.3733 15.0519,-210.0465 10.4633,-219.5961 17.42,-220.3733"/>
<text text-anchor="middle" x="32.5" y="-275.3" font-family="Times,serif" font-size="14.00" fill="#000000">8/50</text>
</g>
<!-- 3 -->
<g id="node3" class="node">
<title>3</title>
<ellipse fill="none" stroke="#000000" cx="72" cy="-279" rx="18" ry="18"/>
<text text-anchor="middle" x="72" y="-275.3" font-family="Times,serif" font-size="14.00" fill="#000000">3</text>
</g>
<!-- 0&#45;&gt;3 -->
<g id="edge2" class="edge">
<title>0&#45;&gt;3</title>
<path fill="none" stroke="#000000" d="M72,-347.9735C72,-336.1918 72,-320.5607 72,-307.1581"/>
<polygon fill="#000000" stroke="#000000" points="75.5001,-307.0033 72,-297.0034 68.5001,-307.0034 75.5001,-307.0033"/>
<text text-anchor="middle" x="87.5" y="-318.8" font-family="Times,serif" font-size="14.00" fill="#000000">10/12</text>
</g>
<!-- 1 -->
<g id="node4" class="node">
<title>1</title>
<ellipse fill="none" stroke="#000000" cx="132" cy="-192" rx="18" ry="18"/>
<text text-anchor="middle" x="132" y="-188.3" font-family="Times,serif" font-size="14.00" fill="#000000">1</text>
</g>
<!-- 0&#45;&gt;1 -->
<g id="edge3" class="edge">
<title>0&#45;&gt;1</title>
<path fill="none" stroke="#000000" d="M86.3225,-354.7951C93.6198,-348.3224 101.9881,-339.5768 107,-330 125.2198,-295.1854 130.4032,-249.4231 131.7458,-220.3515"/>
<polygon fill="#000000" stroke="#000000" points="135.2529,-220.1966 132.0915,-210.0844 128.2569,-219.9609 135.2529,-220.1966"/>
<text text-anchor="middle" x="136" y="-275.3" font-family="Times,serif" font-size="14.00" fill="#000000">7/8</text>
</g>
<!-- 4 -->
<g id="node5" class="node">
<title>4</title>
<ellipse fill="none" stroke="#000000" cx="78" cy="-105" rx="18" ry="18"/>
<text text-anchor="middle" x="78" y="-101.3" font-family="Times,serif" font-size="14.00" fill="#000000">4</text>
</g>
<!-- 2&#45;&gt;4 -->
<g id="edge4" class="edge">
<title>2&#45;&gt;4</title>
<path fill="none" stroke="#000000" d="M17.8757,-173.7881C18.5843,-163.4674 20.8343,-150.7174 27,-141 33.1603,-131.2912 42.9739,-123.4465 52.3547,-117.5884"/>
<polygon fill="#000000" stroke="#000000" points="54.148,-120.5947 61.0826,-112.5846 50.6664,-114.522 54.148,-120.5947"/>
<text text-anchor="middle" x="42.5" y="-144.8" font-family="Times,serif" font-size="14.00" fill="#000000">12/24</text>
</g>
<!-- 3&#45;&gt;2 -->
<g id="edge6" class="edge">
<title>3&#45;&gt;2</title>
<path fill="none" stroke="#000000" d="M59.0649,-266.4816C52.7573,-259.9039 45.3892,-251.4647 40,-243 35.2137,-235.4823 31.0159,-226.7455 27.6055,-218.6497"/>
<polygon fill="#000000" stroke="#000000" points="30.8008,-217.2131 23.8494,-209.2175 24.2974,-219.8029 30.8008,-217.2131"/>
<text text-anchor="middle" x="49" y="-231.8" font-family="Times,serif" font-size="14.00" fill="#000000">2/5</text>
</g>
<!-- 3&#45;&gt;1 -->
<g id="edge7" class="edge">
<title>3&#45;&gt;1</title>
<path fill="none" stroke="#000000" d="M81.9688,-263.7246C88.668,-253.5396 97.748,-239.8891 106,-228 108.9233,-223.7882 112.0823,-219.3354 115.1573,-215.0509"/>
<polygon fill="#000000" stroke="#000000" points="118.2269,-216.7789 121.2487,-206.6241 112.5538,-212.6781 118.2269,-216.7789"/>
<text text-anchor="middle" x="115" y="-231.8" font-family="Times,serif" font-size="14.00" fill="#000000">1/1</text>
</g>
<!-- 3&#45;&gt;4 -->
<g id="edge5" class="edge">
<title>3&#45;&gt;4</title>
<path fill="none" stroke="#000000" d="M72.6308,-260.7078C73.6778,-230.3436 75.782,-169.3226 77.0225,-133.3464"/>
<polygon fill="#000000" stroke="#000000" points="80.5309,-133.1618 77.3777,-123.0471 73.535,-132.9205 80.5309,-133.1618"/>
<text text-anchor="middle" x="84" y="-188.3" font-family="Times,serif" font-size="14.00" fill="#000000">5/7</text>
</g>
<!-- 1&#45;&gt;4 -->
<g id="edge8" class="edge">
<title>1&#45;&gt;4</title>
<path fill="none" stroke="#000000" d="M120.9552,-177.5704C116.1677,-171.1013 110.6143,-163.2984 106,-156 100.8232,-147.8119 95.5954,-138.601 91.0813,-130.2829"/>
<polygon fill="#000000" stroke="#000000" points="94.1234,-128.549 86.3289,-121.3729 87.947,-131.8434 94.1234,-128.549"/>
<text text-anchor="middle" x="115" y="-144.8" font-family="Times,serif" font-size="14.00" fill="#000000">1/3</text>
</g>
<!-- 5 -->
<g id="node6" class="node">
<title>5</title>
<ellipse fill="none" stroke="#000000" cx="111" cy="-18" rx="18" ry="18"/>
<text text-anchor="middle" x="111" y="-14.3" font-family="Times,serif" font-size="14.00" fill="#000000">5</text>
</g>
<!-- 1&#45;&gt;5 -->
<g id="edge9" class="edge">
<title>1&#45;&gt;5</title>
<path fill="none" stroke="#000000" d="M132.5974,-173.9226C133.1065,-147.3509 132.6761,-96.3172 124,-54 123.3327,-50.7452 122.4301,-47.3885 121.4097,-44.0939"/>
<polygon fill="#000000" stroke="#000000" points="124.6887,-42.8667 118.112,-34.5602 118.0733,-45.155 124.6887,-42.8667"/>
<text text-anchor="middle" x="146.5" y="-101.3" font-family="Times,serif" font-size="14.00" fill="#000000">21/23</text>
</g>
<!-- 4&#45;&gt;5 -->
<g id="edge10" class="edge">
<title>4&#45;&gt;5</title>
<path fill="none" stroke="#000000" d="M82.3819,-87.274C85.0421,-77.3451 88.7423,-64.8213 93,-54 94.4135,-50.4074 96.0553,-46.6886 97.761,-43.0656"/>
<polygon fill="#000000" stroke="#000000" points="101.0219,-44.3669 102.3125,-33.8509 94.7458,-41.2668 101.0219,-44.3669"/>
<text text-anchor="middle" x="108.5" y="-57.8" font-family="Times,serif" font-size="14.00" fill="#000000">14/15</text>
</g>
</g>
</svg>
