<?xml version="1.0" encoding="UTF-8" standalone="no"?>
<!DOCTYPE svg PUBLIC "-//W3C//DTD SVG 1.1//EN"
 "http://www.w3.org/Graphics/SVG/1.1/DTD/svg11.dtd">
<!-- Generated by graphviz version 2.40.1 (20161225.0304)
 -->
<!-- Title: finite_state_machine Pages: 1 -->
<svg width="406pt" height="360pt"
 viewBox="0.00 0.00 405.92 360.00" xmlns="http://www.w3.org/2000/svg" xmlns:xlink="http://www.w3.org/1999/xlink">
<g id="graph0" class="graph" transform="scale(.9184 .9184) rotate(0) translate(4 388)">
<title>finite_state_machine</title>
<polygon fill="#ffffff" stroke="transparent" points="-4,4 -4,-388 438,-388 438,4 -4,4"/>
<!-- 0 -->
<g id="node1" class="node">
<title>0</title>
<ellipse fill="none" stroke="#000000" cx="99" cy="-366" rx="18" ry="18"/>
<text text-anchor="middle" x="99" y="-362.3" font-family="Times,serif" font-size="14.00" fill="#000000">0</text>
</g>
<!-- 1 -->
<g id="node2" class="node">
<title>1</title>
<ellipse fill="none" stroke="#000000" cx="185" cy="-279" rx="18" ry="18"/>
<text text-anchor="middle" x="185" y="-275.3" font-family="Times,serif" font-size="14.00" fill="#000000">1</text>
</g>
<!-- 0&#45;&gt;1 -->
<g id="edge1" class="edge">
<title>0&#45;&gt;1</title>
<path fill="none" stroke="#000000" d="M107.7221,-349.6921C113.895,-339.0712 122.8567,-325.3228 133,-315 140.9651,-306.894 150.9894,-299.458 160.1058,-293.4753"/>
<polygon fill="#000000" stroke="#000000" points="162.2048,-296.29 168.8098,-288.006 158.4805,-290.363 162.2048,-296.29"/>
<text text-anchor="middle" x="136.5" y="-318.8" font-family="Times,serif" font-size="14.00" fill="#000000">1</text>
</g>
<!-- 3 -->
<g id="node3" class="node">
<title>3</title>
<ellipse fill="none" stroke="#000000" cx="151" cy="-105" rx="18" ry="18"/>
<text text-anchor="middle" x="151" y="-101.3" font-family="Times,serif" font-size="14.00" fill="#000000">3</text>
</g>
<!-- 0&#45;&gt;3 -->
<g id="edge2" class="edge">
<title>0&#45;&gt;3</title>
<path fill="none" stroke="#000000" d="M85.0873,-354.3675C78.2665,-347.8966 70.5582,-339.2854 66,-330 28.984,-254.5957 13.8073,-206.8174 66,-141 79.9468,-123.4124 104.0763,-114.2936 123.0714,-109.6414"/>
<polygon fill="#000000" stroke="#000000" points="123.9664,-113.0288 132.9987,-107.4909 122.4844,-106.1875 123.9664,-113.0288"/>
<text text-anchor="middle" x="37.5" y="-231.8" font-family="Times,serif" font-size="14.00" fill="#000000">2</text>
</g>
<!-- 2 -->
<g id="node4" class="node">
<title>2</title>
<ellipse fill="none" stroke="#000000" cx="202" cy="-18" rx="18" ry="18"/>
<text text-anchor="middle" x="202" y="-14.3" font-family="Times,serif" font-size="14.00" fill="#000000">2</text>
</g>
<!-- 0&#45;&gt;2 -->
<g id="edge3" class="edge">
<title>0&#45;&gt;2</title>
<path fill="none" stroke="#000000" d="M81.7555,-359.9511C53.3914,-348.7722 0,-322.0165 0,-279 0,-279 0,-279 0,-105 0,-67.5139 118.8268,-36.3518 174.2059,-23.8642"/>
<polygon fill="#000000" stroke="#000000" points="175.0635,-27.2592 184.0738,-21.6858 173.5544,-20.4238 175.0635,-27.2592"/>
<text text-anchor="middle" x="7" y="-188.3" font-family="Times,serif" font-size="14.00" fill="#000000">42</text>
</g>
<!-- 1&#45;&gt;0 -->
<g id="edge13" class="edge">
<title>1&#45;&gt;0</title>
<path fill="none" stroke="#000000" d="M173.2387,-293.2881C164.4179,-303.7616 151.8708,-318.158 140,-330 133.9644,-336.021 127.1051,-342.2579 120.7473,-347.8148"/>
<polygon fill="#000000" stroke="#000000" points="118.363,-345.249 113.062,-354.4224 122.9266,-350.5569 118.363,-345.249"/>
<text text-anchor="middle" x="157.5" y="-318.8" font-family="Times,serif" font-size="14.00" fill="#000000">7</text>
</g>
<!-- 1&#45;&gt;3 -->
<g id="edge12" class="edge">
<title>1&#45;&gt;3</title>
<path fill="none" stroke="#000000" d="M172.0194,-265.6008C160.5577,-252.6224 144.9248,-231.7602 140,-210 133.23,-180.0866 134.0872,-171.2739 139,-141 139.5009,-137.9131 140.2287,-134.7332 141.0819,-131.601"/>
<polygon fill="#000000" stroke="#000000" points="144.4621,-132.5185 144.1111,-121.9295 137.7821,-130.4262 144.4621,-132.5185"/>
<text text-anchor="middle" x="143.5" y="-188.3" font-family="Times,serif" font-size="14.00" fill="#000000">1</text>
</g>
<!-- 5 -->
<g id="node5" class="node">
<title>5</title>
<ellipse fill="none" stroke="#000000" cx="338" cy="-105" rx="18" ry="18"/>
<text text-anchor="middle" x="338" y="-101.3" font-family="Times,serif" font-size="14.00" fill="#000000">5</text>
</g>
<!-- 1&#45;&gt;5 -->
<g id="edge10" class="edge">
<title>1&#45;&gt;5</title>
<path fill="none" stroke="#000000" d="M201.2884,-270.8438C232.7109,-254.1438 301.3008,-212.7895 332,-156 335.7308,-149.0985 337.6057,-140.9154 338.4597,-133.1473"/>
<polygon fill="#000000" stroke="#000000" points="341.965,-133.1627 339.07,-122.971 334.9776,-132.7436 341.965,-133.1627"/>
<text text-anchor="middle" x="322.5" y="-188.3" font-family="Times,serif" font-size="14.00" fill="#000000">2</text>
</g>
<!-- 4 -->
<g id="node6" class="node">
<title>4</title>
<ellipse fill="none" stroke="#000000" cx="233" cy="-192" rx="18" ry="18"/>
<text text-anchor="middle" x="233" y="-188.3" font-family="Times,serif" font-size="14.00" fill="#000000">4</text>
</g>
<!-- 1&#45;&gt;4 -->
<g id="edge11" class="edge">
<title>1&#45;&gt;4</title>
<path fill="none" stroke="#000000" d="M190.4841,-261.4352C193.9788,-251.3303 198.9788,-238.5803 205,-228 207.7206,-223.2195 211.0265,-218.3825 214.3997,-213.8717"/>
<polygon fill="#000000" stroke="#000000" points="217.3972,-215.7224 220.8332,-205.7002 211.8972,-211.3922 217.3972,-215.7224"/>
<text text-anchor="middle" x="208.5" y="-231.8" font-family="Times,serif" font-size="14.00" fill="#000000">2</text>
</g>
<!-- 3&#45;&gt;0 -->
<g id="edge17" class="edge">
<title>3&#45;&gt;0</title>
<path fill="none" stroke="#000000" d="M141.2723,-120.6139C137.845,-126.7619 134.2814,-134.0133 132,-141 109.687,-209.3313 102.4204,-294.2766 100.0843,-337.6402"/>
<polygon fill="#000000" stroke="#000000" points="96.5834,-337.5744 99.5904,-347.7336 103.575,-337.9166 96.5834,-337.5744"/>
<text text-anchor="middle" x="118" y="-231.8" font-family="Times,serif" font-size="14.00" fill="#000000">10</text>
</g>
<!-- 3&#45;&gt;1 -->
<g id="edge14" class="edge">
<title>3&#45;&gt;1</title>
<path fill="none" stroke="#000000" d="M154.4914,-122.868C160.4236,-153.2264 172.511,-215.0855 179.56,-251.1601"/>
<polygon fill="#000000" stroke="#000000" points="176.1366,-251.8912 181.4895,-261.0343 183.0067,-250.5487 176.1366,-251.8912"/>
<text text-anchor="middle" x="174.5" y="-188.3" font-family="Times,serif" font-size="14.00" fill="#000000">0</text>
</g>
<!-- 3&#45;&gt;2 -->
<g id="edge15" class="edge">
<title>3&#45;&gt;2</title>
<path fill="none" stroke="#000000" d="M150.3061,-86.9848C150.6581,-76.7297 152.4081,-63.9797 158,-54 162.6467,-45.7071 170.0249,-38.5587 177.4215,-32.8673"/>
<polygon fill="#000000" stroke="#000000" points="179.7808,-35.4872 185.9505,-26.8741 175.7562,-29.7598 179.7808,-35.4872"/>
<text text-anchor="middle" x="161.5" y="-57.8" font-family="Times,serif" font-size="14.00" fill="#000000">3</text>
</g>
<!-- 3&#45;&gt;4 -->
<g id="edge16" class="edge">
<title>3&#45;&gt;4</title>
<path fill="none" stroke="#000000" d="M165.1719,-116.8425C173.0435,-123.6415 182.8607,-132.4953 191,-141 199.5007,-149.8823 208.246,-160.2673 215.5407,-169.3396"/>
<polygon fill="#000000" stroke="#000000" points="212.831,-171.5556 221.7835,-177.2215 218.3183,-167.2093 212.831,-171.5556"/>
<text text-anchor="middle" x="207.5" y="-144.8" font-family="Times,serif" font-size="14.00" fill="#000000">2</text>
</g>
<!-- 2&#45;&gt;0 -->
<g id="edge20" class="edge">
<title>2&#45;&gt;0</title>
<path fill="none" stroke="#000000" d="M220.0324,-20.9578C273.424,-30.2199 427,-60.7109 427,-105 427,-279 427,-279 427,-279 427,-340.7531 207.0415,-359.709 127.3747,-364.5494"/>
<polygon fill="#000000" stroke="#000000" points="126.8838,-361.0718 117.1019,-365.1418 127.2868,-368.0602 126.8838,-361.0718"/>
<text text-anchor="middle" x="430.5" y="-188.3" font-family="Times,serif" font-size="14.00" fill="#000000">8</text>
</g>
<!-- 2&#45;&gt;3 -->
<g id="edge19" class="edge">
<title>2&#45;&gt;3</title>
<path fill="none" stroke="#000000" d="M192.7892,-33.7125C185.1217,-46.7924 174.0746,-65.6374 165.2642,-80.6669"/>
<polygon fill="#000000" stroke="#000000" points="162.1556,-79.0491 160.1178,-89.4461 168.1945,-82.5892 162.1556,-79.0491"/>
<text text-anchor="middle" x="182.5" y="-57.8" font-family="Times,serif" font-size="14.00" fill="#000000">2</text>
</g>
<!-- 2&#45;&gt;4 -->
<g id="edge18" class="edge">
<title>2&#45;&gt;4</title>
<path fill="none" stroke="#000000" d="M212.5775,-32.7292C221.469,-46.1289 233.4367,-66.8372 238,-87 243.8241,-112.7337 241.4753,-142.8897 238.3272,-164.2657"/>
<polygon fill="#000000" stroke="#000000" points="234.8485,-163.8526 236.6988,-174.2846 241.7579,-164.9757 234.8485,-163.8526"/>
<text text-anchor="middle" x="248" y="-101.3" font-family="Times,serif" font-size="14.00" fill="#000000">12</text>
</g>
<!-- 5&#45;&gt;1 -->
<g id="edge5" class="edge">
<title>5&#45;&gt;1</title>
<path fill="none" stroke="#000000" d="M350.1497,-118.3004C355.1664,-124.6776 360.4076,-132.7219 363,-141 376.6939,-184.7268 379.6361,-209.8531 348,-243 329.7313,-262.1411 254.5911,-272.2922 213.0071,-276.5395"/>
<polygon fill="#000000" stroke="#000000" points="212.5839,-273.064 202.9701,-277.5165 213.2622,-280.0311 212.5839,-273.064"/>
<text text-anchor="middle" x="379" y="-188.3" font-family="Times,serif" font-size="14.00" fill="#000000">21</text>
</g>
<!-- 5&#45;&gt;4 -->
<g id="edge4" class="edge">
<title>5&#45;&gt;4</title>
<path fill="none" stroke="#000000" d="M329.2167,-120.7398C322.5451,-131.6478 312.5635,-145.9592 301,-156 288.6633,-166.7121 272.5924,-175.4061 259.1716,-181.565"/>
<polygon fill="#000000" stroke="#000000" points="257.7185,-178.3804 249.9589,-185.5943 260.5235,-184.7938 257.7185,-178.3804"/>
<text text-anchor="middle" x="321" y="-144.8" font-family="Times,serif" font-size="14.00" fill="#000000">14</text>
</g>
<!-- 4&#45;&gt;1 -->
<g id="edge7" class="edge">
<title>4&#45;&gt;1</title>
<path fill="none" stroke="#000000" d="M226.2919,-208.9177C222.0566,-219.0332 216.2227,-232.013 210,-243 207.5508,-247.3244 204.7241,-251.7854 201.8718,-256.032"/>
<polygon fill="#000000" stroke="#000000" points="198.9332,-254.1274 196.0943,-264.3348 204.679,-258.1256 198.9332,-254.1274"/>
<text text-anchor="middle" x="220.5" y="-231.8" font-family="Times,serif" font-size="14.00" fill="#000000">1</text>
</g>
<!-- 4&#45;&gt;3 -->
<g id="edge8" class="edge">
<title>4&#45;&gt;3</title>
<path fill="none" stroke="#000000" d="M217.6113,-182.071C207.9145,-175.3849 195.4816,-165.9897 186,-156 178.3486,-147.9385 171.1631,-138.0592 165.3174,-129.1497"/>
<polygon fill="#000000" stroke="#000000" points="168.2549,-127.2464 159.9508,-120.6667 162.3393,-130.9888 168.2549,-127.2464"/>
<text text-anchor="middle" x="189.5" y="-144.8" font-family="Times,serif" font-size="14.00" fill="#000000">5</text>
</g>
<!-- 4&#45;&gt;2 -->
<g id="edge9" class="edge">
<title>4&#45;&gt;2</title>
<path fill="none" stroke="#000000" d="M229.7992,-174.0343C224.3785,-143.6084 213.3566,-81.7433 206.9393,-45.724"/>
<polygon fill="#000000" stroke="#000000" points="210.3832,-45.099 205.1834,-35.868 203.4917,-46.3269 210.3832,-45.099"/>
<text text-anchor="middle" x="227" y="-101.3" font-family="Times,serif" font-size="14.00" fill="#000000">12</text>
</g>
<!-- 4&#45;&gt;5 -->
<g id="edge6" class="edge">
<title>4&#45;&gt;5</title>
<path fill="none" stroke="#000000" d="M247.1608,-180.2668C264.8724,-165.5914 295.3847,-140.3098 316.1124,-123.1354"/>
<polygon fill="#000000" stroke="#000000" points="318.5964,-125.6226 324.0636,-116.5473 314.1303,-120.2324 318.5964,-125.6226"/>
<text text-anchor="middle" x="294.5" y="-144.8" font-family="Times,serif" font-size="14.00" fill="#000000">1</text>
</g>
</g>
</svg>
