<?xml version="1.0" encoding="UTF-8" standalone="no"?>
<!DOCTYPE svg PUBLIC "-//W3C//DTD SVG 1.1//EN"
 "http://www.w3.org/Graphics/SVG/1.1/DTD/svg11.dtd">
<!-- Generated by graphviz version 2.40.1 (20161225.0304)
 -->
<!-- Title: finite_state_machine Pages: 1 -->
<svg width="132pt" height="360pt"
 viewBox="0.00 0.00 132.24 360.00" xmlns="http://www.w3.org/2000/svg" xmlns:xlink="http://www.w3.org/1999/xlink">
<g id="graph0" class="graph" transform="scale(.9184 .9184) rotate(0) translate(4 388)">
<title>finite_state_machine</title>
<polygon fill="#ffffff" stroke="transparent" points="-4,4 -4,-388 140,-388 140,4 -4,4"/>
<!-- 4 -->
<g id="node1" class="node">
<title>4</title>
<ellipse fill="none" stroke="#000000" cx="65" cy="-105" rx="18" ry="18"/>
<text text-anchor="middle" x="65" y="-101.3" font-family="Times,serif" font-size="14.00" fill="#000000">4</text>
</g>
<!-- 5 -->
<g id="node2" class="node">
<title>5</title>
<ellipse fill="none" stroke="#000000" cx="18" cy="-18" rx="18" ry="18"/>
<text text-anchor="middle" x="18" y="-14.3" font-family="Times,serif" font-size="14.00" fill="#000000">5</text>
</g>
<!-- 4&#45;&gt;5 -->
<g id="edge1" class="edge">
<title>4&#45;&gt;5</title>
<path fill="none" stroke="#000000" d="M56.3795,-89.0429C49.423,-76.1659 39.5113,-57.8188 31.5032,-42.9954"/>
<polygon fill="#000000" stroke="#000000" points="34.3984,-40.9906 26.5659,-33.856 28.2396,-44.3178 34.3984,-40.9906"/>
<text text-anchor="middle" x="53" y="-57.8" font-family="Times,serif" font-size="14.00" fill="#000000">2/2</text>
</g>
<!-- 1 -->
<g id="node3" class="node">
<title>1</title>
<ellipse fill="none" stroke="#000000" cx="118" cy="-279" rx="18" ry="18"/>
<text text-anchor="middle" x="118" y="-275.3" font-family="Times,serif" font-size="14.00" fill="#000000">1</text>
</g>
<!-- 1&#45;&gt;4 -->
<g id="edge2" class="edge">
<title>1&#45;&gt;4</title>
<path fill="none" stroke="#000000" d="M114.82,-260.9892C113.0022,-251.1936 110.5755,-238.8878 108,-228 102.266,-203.7602 101.0295,-197.579 93,-174 88.1003,-159.612 81.7954,-143.8862 76.4093,-131.0862"/>
<polygon fill="#000000" stroke="#000000" points="79.4753,-129.3533 72.3313,-121.5295 73.037,-132.1008 79.4753,-129.3533"/>
<text text-anchor="middle" x="115.5" y="-188.3" font-family="Times,serif" font-size="14.00" fill="#000000">0/10</text>
</g>
<!-- 3 -->
<g id="node4" class="node">
<title>3</title>
<ellipse fill="none" stroke="#000000" cx="21" cy="-192" rx="18" ry="18"/>
<text text-anchor="middle" x="21" y="-188.3" font-family="Times,serif" font-size="14.00" fill="#000000">3</text>
</g>
<!-- 1&#45;&gt;3 -->
<g id="edge3" class="edge">
<title>1&#45;&gt;3</title>
<path fill="none" stroke="#000000" d="M105.207,-266.1267C94.6396,-255.6313 79.134,-240.546 65,-228 58.103,-221.8779 50.3791,-215.4289 43.3507,-209.7073"/>
<polygon fill="#000000" stroke="#000000" points="45.4929,-206.9386 35.5107,-203.3879 41.0999,-212.3886 45.4929,-206.9386"/>
<text text-anchor="middle" x="91.5" y="-231.8" font-family="Times,serif" font-size="14.00" fill="#000000">2/50</text>
</g>
<!-- 3&#45;&gt;4 -->
<g id="edge6" class="edge">
<title>3&#45;&gt;4</title>
<path fill="none" stroke="#000000" d="M24.5048,-173.8734C26.8906,-163.8191 30.6086,-151.3034 36,-141 38.6977,-135.8446 42.1933,-130.7218 45.8185,-126.0268"/>
<polygon fill="#000000" stroke="#000000" points="48.6752,-128.064 52.3395,-118.123 43.2757,-123.6091 48.6752,-128.064"/>
<text text-anchor="middle" x="48.5" y="-144.8" font-family="Times,serif" font-size="14.00" fill="#000000">2/20</text>
</g>
<!-- 3&#45;&gt;5 -->
<g id="edge7" class="edge">
<title>3&#45;&gt;5</title>
<path fill="none" stroke="#000000" d="M20.6846,-173.7078C20.1611,-143.3436 19.109,-82.3226 18.4887,-46.3464"/>
<polygon fill="#000000" stroke="#000000" points="21.9831,-45.9852 18.3112,-36.0471 14.9842,-46.106 21.9831,-45.9852"/>
<text text-anchor="middle" x="29" y="-101.3" font-family="Times,serif" font-size="14.00" fill="#000000">2/2</text>
</g>
<!-- 0 -->
<g id="node5" class="node">
<title>0</title>
<ellipse fill="none" stroke="#000000" cx="91" cy="-366" rx="18" ry="18"/>
<text text-anchor="middle" x="91" y="-362.3" font-family="Times,serif" font-size="14.00" fill="#000000">0</text>
</g>
<!-- 0&#45;&gt;1 -->
<g id="edge4" class="edge">
<title>0&#45;&gt;1</title>
<path fill="none" stroke="#000000" d="M96.4639,-348.3943C100.2213,-336.287 105.2845,-319.972 109.5576,-306.2034"/>
<polygon fill="#000000" stroke="#000000" points="113.0151,-306.8707 112.6364,-296.2827 106.3296,-304.7959 113.0151,-306.8707"/>
<text text-anchor="middle" x="118.5" y="-318.8" font-family="Times,serif" font-size="14.00" fill="#000000">2/10</text>
</g>
<!-- 2 -->
<g id="node6" class="node">
<title>2</title>
<ellipse fill="none" stroke="#000000" cx="64" cy="-279" rx="18" ry="18"/>
<text text-anchor="middle" x="64" y="-275.3" font-family="Times,serif" font-size="14.00" fill="#000000">2</text>
</g>
<!-- 0&#45;&gt;2 -->
<g id="edge5" class="edge">
<title>0&#45;&gt;2</title>
<path fill="none" stroke="#000000" d="M81.91,-350.2946C78.6785,-344.1354 75.2802,-336.9002 73,-330 70.6224,-322.805 68.8348,-314.8197 67.5064,-307.3444"/>
<polygon fill="#000000" stroke="#000000" points="70.9305,-306.5872 65.9207,-297.2516 64.0153,-307.6737 70.9305,-306.5872"/>
<text text-anchor="middle" x="85.5" y="-318.8" font-family="Times,serif" font-size="14.00" fill="#000000">2/20</text>
</g>
<!-- 2&#45;&gt;4 -->
<g id="edge8" class="edge">
<title>2&#45;&gt;4</title>
<path fill="none" stroke="#000000" d="M64.1051,-260.7078C64.2796,-230.3436 64.6303,-169.3226 64.8371,-133.3464"/>
<polygon fill="#000000" stroke="#000000" points="68.3387,-133.0671 64.8963,-123.0471 61.3388,-133.0268 68.3387,-133.0671"/>
<text text-anchor="middle" x="76.5" y="-188.3" font-family="Times,serif" font-size="14.00" fill="#000000">0/33</text>
</g>
<!-- 2&#45;&gt;3 -->
<g id="edge9" class="edge">
<title>2&#45;&gt;3</title>
<path fill="none" stroke="#000000" d="M51.5119,-265.4735C46.1192,-259.0506 40.1164,-251.0331 36,-243 32.3126,-235.8041 29.3922,-227.5605 27.1458,-219.829"/>
<polygon fill="#000000" stroke="#000000" points="30.5115,-218.8655 24.5731,-210.0913 23.7437,-220.6536 30.5115,-218.8655"/>
<text text-anchor="middle" x="48.5" y="-231.8" font-family="Times,serif" font-size="14.00" fill="#000000">2/20</text>
</g>
</g>
</svg>
