<?xml version="1.0" encoding="UTF-8" standalone="no"?>
<!DOCTYPE svg PUBLIC "-//W3C//DTD SVG 1.1//EN"
 "http://www.w3.org/Graphics/SVG/1.1/DTD/svg11.dtd">
<!-- Generated by graphviz version 2.40.1 (20161225.0304)
 -->
<!-- Title: finite_state_machine Pages: 1 -->
<svg width="138pt" height="360pt"
 viewBox="0.00 0.00 137.76 360.00" xmlns="http://www.w3.org/2000/svg" xmlns:xlink="http://www.w3.org/1999/xlink">
<g id="graph0" class="graph" transform="scale(.9184 .9184) rotate(0) translate(4 388)">
<title>finite_state_machine</title>
<polygon fill="#ffffff" stroke="transparent" points="-4,4 -4,-388 146,-388 146,4 -4,4"/>
<!-- 4 -->
<g id="node1" class="node">
<title>4</title>
<ellipse fill="none" stroke="#000000" cx="68" cy="-105" rx="18" ry="18"/>
<text text-anchor="middle" x="68" y="-101.3" font-family="Times,serif" font-size="14.00" fill="#000000">4</text>
</g>
<!-- 5 -->
<g id="node2" class="node">
<title>5</title>
<ellipse fill="none" stroke="#000000" cx="18" cy="-18" rx="18" ry="18"/>
<text text-anchor="middle" x="18" y="-14.3" font-family="Times,serif" font-size="14.00" fill="#000000">5</text>
</g>
<!-- 4&#45;&gt;5 -->
<g id="edge1" class="edge">
<title>4&#45;&gt;5</title>
<path fill="none" stroke="#000000" d="M58.8292,-89.0429C51.3582,-76.0433 40.6832,-57.4688 32.1223,-42.5728"/>
<polygon fill="#000000" stroke="#000000" points="35.1301,-40.7821 27.1126,-33.856 29.061,-44.2701 35.1301,-40.7821"/>
<text text-anchor="middle" x="54" y="-57.8" font-family="Times,serif" font-size="14.00" fill="#000000">2/2</text>
</g>
<!-- 0 -->
<g id="node3" class="node">
<title>0</title>
<ellipse fill="none" stroke="#000000" cx="97" cy="-366" rx="18" ry="18"/>
<text text-anchor="middle" x="97" y="-362.3" font-family="Times,serif" font-size="14.00" fill="#000000">0</text>
</g>
<!-- 1 -->
<g id="node4" class="node">
<title>1</title>
<ellipse fill="none" stroke="#000000" cx="124" cy="-279" rx="18" ry="18"/>
<text text-anchor="middle" x="124" y="-275.3" font-family="Times,serif" font-size="14.00" fill="#000000">1</text>
</g>
<!-- 0&#45;&gt;1 -->
<g id="edge2" class="edge">
<title>0&#45;&gt;1</title>
<path fill="none" stroke="#000000" d="M102.4639,-348.3943C106.2213,-336.287 111.2845,-319.972 115.5576,-306.2034"/>
<polygon fill="#000000" stroke="#000000" points="119.0151,-306.8707 118.6364,-296.2827 112.3296,-304.7959 119.0151,-306.8707"/>
<text text-anchor="middle" x="124.5" y="-318.8" font-family="Times,serif" font-size="14.00" fill="#000000">0/10</text>
</g>
<!-- 2 -->
<g id="node5" class="node">
<title>2</title>
<ellipse fill="none" stroke="#000000" cx="70" cy="-279" rx="18" ry="18"/>
<text text-anchor="middle" x="70" y="-275.3" font-family="Times,serif" font-size="14.00" fill="#000000">2</text>
</g>
<!-- 0&#45;&gt;2 -->
<g id="edge3" class="edge">
<title>0&#45;&gt;2</title>
<path fill="none" stroke="#000000" d="M85.2994,-352.2144C80.6013,-345.8646 75.6734,-337.9769 73,-330 70.6246,-322.9122 69.4881,-314.9635 69.0322,-307.489"/>
<polygon fill="#000000" stroke="#000000" points="72.5284,-307.288 68.7827,-297.3774 65.5305,-307.4607 72.5284,-307.288"/>
<text text-anchor="middle" x="88.5" y="-318.8" font-family="Times,serif" font-size="14.00" fill="#000000">20/20</text>
</g>
<!-- 1&#45;&gt;4 -->
<g id="edge8" class="edge">
<title>1&#45;&gt;4</title>
<path fill="none" stroke="#000000" d="M123.9308,-260.8525C123.5561,-251.0168 122.5383,-238.7164 120,-228 111.6032,-192.5493 93.9218,-154.2751 81.518,-130.0011"/>
<polygon fill="#000000" stroke="#000000" points="84.6137,-128.3678 76.8915,-121.1139 78.4046,-131.6002 84.6137,-128.3678"/>
<text text-anchor="middle" x="126.5" y="-188.3" font-family="Times,serif" font-size="14.00" fill="#000000">3/10</text>
</g>
<!-- 3 -->
<g id="node6" class="node">
<title>3</title>
<ellipse fill="none" stroke="#000000" cx="27" cy="-192" rx="18" ry="18"/>
<text text-anchor="middle" x="27" y="-188.3" font-family="Times,serif" font-size="14.00" fill="#000000">3</text>
</g>
<!-- 1&#45;&gt;3 -->
<g id="edge9" class="edge">
<title>1&#45;&gt;3</title>
<path fill="none" stroke="#000000" d="M111.207,-266.1267C100.6396,-255.6313 85.134,-240.546 71,-228 64.103,-221.8779 56.3791,-215.4289 49.3507,-209.7073"/>
<polygon fill="#000000" stroke="#000000" points="51.4929,-206.9386 41.5107,-203.3879 47.0999,-212.3886 51.4929,-206.9386"/>
<text text-anchor="middle" x="100.5" y="-231.8" font-family="Times,serif" font-size="14.00" fill="#000000">46/50</text>
</g>
<!-- 2&#45;&gt;4 -->
<g id="edge5" class="edge">
<title>2&#45;&gt;4</title>
<path fill="none" stroke="#000000" d="M69.7897,-260.7078C69.4407,-230.3436 68.7393,-169.3226 68.3258,-133.3464"/>
<polygon fill="#000000" stroke="#000000" points="71.8222,-133.0062 68.2074,-123.0471 64.8227,-133.0867 71.8222,-133.0062"/>
<text text-anchor="middle" x="81.5" y="-188.3" font-family="Times,serif" font-size="14.00" fill="#000000">3/33</text>
</g>
<!-- 2&#45;&gt;3 -->
<g id="edge4" class="edge">
<title>2&#45;&gt;3</title>
<path fill="none" stroke="#000000" d="M55.6771,-267.4379C48.6528,-260.9862 40.7102,-252.371 36,-243 32.5022,-236.0412 30.3411,-227.9523 29.0125,-220.2949"/>
<polygon fill="#000000" stroke="#000000" points="32.4661,-219.7139 27.6696,-210.2671 25.528,-220.6432 32.4661,-219.7139"/>
<text text-anchor="middle" x="51.5" y="-231.8" font-family="Times,serif" font-size="14.00" fill="#000000">17/20</text>
</g>
<!-- 3&#45;&gt;4 -->
<g id="edge6" class="edge">
<title>3&#45;&gt;4</title>
<path fill="none" stroke="#000000" d="M27.7882,-173.7915C28.8084,-163.7116 31.0657,-151.1976 36,-141 38.8683,-135.0722 43,-129.3848 47.3464,-124.3508"/>
<polygon fill="#000000" stroke="#000000" points="49.9166,-126.7267 54.2025,-117.0374 44.8097,-121.9391 49.9166,-126.7267"/>
<text text-anchor="middle" x="51.5" y="-144.8" font-family="Times,serif" font-size="14.00" fill="#000000">19/20</text>
</g>
<!-- 3&#45;&gt;5 -->
<g id="edge7" class="edge">
<title>3&#45;&gt;5</title>
<path fill="none" stroke="#000000" d="M25.8961,-173.8432C25.0627,-159.9301 23.911,-140.2549 23,-123 21.6317,-97.0828 20.2407,-67.558 19.2744,-46.4315"/>
<polygon fill="#000000" stroke="#000000" points="22.7605,-46.0437 18.8102,-36.2129 15.7677,-46.3614 22.7605,-46.0437"/>
<text text-anchor="middle" x="32" y="-101.3" font-family="Times,serif" font-size="14.00" fill="#000000">2/2</text>
</g>
</g>
</svg>
